<svg width="39" height="39" viewBox="0 0 39 39" fill="none" xmlns="http://www.w3.org/2000/svg">
<path d="M21.6552 28.5061C23.5381 28.5016 25.3423 27.7505 26.6721 26.4175C28.0019 25.0846 28.7487 23.2786 28.7487 21.3957V16.8213C28.7398 14.9443 27.989 13.147 26.6602 11.8213C25.3313 10.4956 23.5322 9.74919 21.6552 9.74474H17.0639C15.181 9.74474 13.375 10.4915 12.0421 11.8213C10.7091 13.1511 9.95798 14.9554 9.9535 16.8382V21.4295C9.9535 21.4634 9.9535 21.4973 9.9535 21.5311H0.337482V13.6792C0.337482 10.0824 1.76608 6.63284 4.30909 4.08919C6.85209 1.54555 10.3013 0.116094 13.8981 0.115196H24.7973C28.3945 0.116094 31.844 1.54544 34.3875 4.08899C36.9311 6.63253 38.3604 10.0821 38.3613 13.6792V24.5547C38.3604 28.1515 36.931 31.6007 34.3873 34.1437C31.8437 36.6867 28.3942 38.1153 24.7973 38.1153H19.4374V28.5061H21.6552Z" fill="url(#paint0_linear_402_1722)"/>
<path d="M9.95719 21.5143C9.98299 23.377 10.7409 25.1548 12.067 26.4632C13.3932 27.7716 15.181 28.5055 17.0439 28.5062H19.4141V38.1154H13.8984C12.117 38.1176 10.3526 37.7684 8.70635 37.0877C7.0601 36.407 5.5643 35.4082 4.30464 34.1486C3.04498 32.8889 2.04621 31.3931 1.36551 29.7469C0.684816 28.1006 0.335583 26.3362 0.337811 24.5548V17.2142H9.95719V21.5143Z" fill="url(#paint1_radial_402_1722)"/>
<defs>
<linearGradient id="paint0_linear_402_1722" x1="13.4748" y1="34.1775" x2="37.9996" y2="-4.49998" gradientUnits="userSpaceOnUse">
<stop offset="0.0625" stop-color="#277EFF"/>
<stop offset="0.697917" stop-color="#12DCF6"/>
</linearGradient>
<radialGradient id="paint1_radial_402_1722" cx="0" cy="0" r="1" gradientUnits="userSpaceOnUse" gradientTransform="translate(6.99988 31.9999) rotate(29.2488) scale(28.6531)">
<stop offset="0.151571" stop-color="#F33ABF"/>
<stop offset="1" stop-color="#2C1783"/>
</radialGradient>
</defs>
</svg>
