<svg width="172" height="39" viewBox="0 0 172 39" fill="none" xmlns="http://www.w3.org/2000/svg">
<path d="M21.6552 28.5061C23.5381 28.5016 25.3423 27.7505 26.6721 26.4175C28.0019 25.0846 28.7487 23.2786 28.7487 21.3957V16.8213C28.7398 14.9443 27.989 13.147 26.6602 11.8213C25.3313 10.4956 23.5322 9.74919 21.6552 9.74474H17.0639C15.181 9.74474 13.375 10.4915 12.0421 11.8213C10.7091 13.1511 9.95798 14.9554 9.9535 16.8382V21.4295C9.9535 21.4634 9.9535 21.4973 9.9535 21.5311H0.337482V13.6792C0.337482 10.0824 1.76608 6.63284 4.30909 4.08919C6.85209 1.54555 10.3013 0.116094 13.8981 0.115196H24.7973C28.3945 0.116094 31.844 1.54544 34.3875 4.08899C36.9311 6.63253 38.3604 10.0821 38.3613 13.6792V24.5547C38.3604 28.1515 36.931 31.6007 34.3873 34.1437C31.8437 36.6867 28.3942 38.1153 24.7973 38.1153H19.4374V28.5061H21.6552Z" fill="url(#paint0_linear_402_1721)"/>
<path d="M9.95719 21.5143C9.98299 23.377 10.7409 25.1548 12.067 26.4632C13.3932 27.7716 15.181 28.5055 17.0439 28.5062H19.4141V38.1154H13.8984C12.117 38.1176 10.3526 37.7684 8.70635 37.0877C7.0601 36.407 5.5643 35.4082 4.30464 34.1486C3.04498 32.8889 2.04621 31.3931 1.36551 29.7469C0.684816 28.1006 0.335582 26.3362 0.337811 24.5548V17.2142H9.95719V21.5143Z" fill="url(#paint1_radial_402_1721)"/>
<path d="M64.9199 24.2129C64.9199 24.541 64.8574 24.8535 64.7324 25.1504C64.6074 25.4395 64.4355 25.6934 64.2168 25.9121C63.998 26.1309 63.7402 26.3028 63.4434 26.4278C63.1543 26.5528 62.8457 26.6153 62.5176 26.6153H52.9199C52.5918 26.6153 52.2793 26.5528 51.9824 26.4278C51.6934 26.3028 51.4395 26.1309 51.2207 25.9121C51.002 25.6934 50.8301 25.4395 50.7051 25.1504C50.5801 24.8535 50.5176 24.541 50.5176 24.2129V12.2129C50.5176 11.8848 50.5801 11.5762 50.7051 11.2871C50.8301 10.9903 51.002 10.7364 51.2207 10.5254C51.4395 10.3067 51.6934 10.1348 51.9824 10.0098C52.2793 9.87698 52.5918 9.81058 52.9199 9.81058H62.5176C62.8457 9.81058 63.1543 9.87698 63.4434 10.0098C63.7402 10.1348 63.998 10.3067 64.2168 10.5254C64.4355 10.7364 64.6074 10.9903 64.7324 11.2871C64.8574 11.5762 64.9199 11.8848 64.9199 12.2129V24.2129ZM52.9199 12.2129V24.2129H62.5176V12.2129H52.9199ZM71.6465 26.6153H69.2441V9.81058H71.6465L81.748 22.8418V9.81058H84.1504V26.6153H81.748L71.6465 13.584V26.6153ZM88.4629 9.81058H100.709V12.2129H90.8652V17.0176H99.2676V19.42H90.8652V24.2129H100.709V26.6153H88.4629V9.81058ZM106.709 9.81058V24.2129H115.346V26.6153H104.307V9.81058H106.709ZM125.67 9.81058L132.15 26.6153H129.748L128.26 22.7481H120.678L119.189 26.6153H116.787L123.268 9.81058H125.67ZM121.592 20.3457H127.334L124.475 12.9395L121.592 20.3457ZM137.436 26.6153H135.033V9.81058H137.436L147.537 22.8418V9.81058H149.939V26.6153H147.537L137.436 13.584V26.6153ZM162.795 24.2129C163.912 24.2129 164.771 23.9121 165.373 23.3106C165.975 22.709 166.275 21.8496 166.275 20.7325V15.6934C166.275 15.1465 166.197 14.6582 166.041 14.2285C165.885 13.7989 165.654 13.4356 165.35 13.1387C165.053 12.834 164.689 12.6035 164.26 12.4473C163.83 12.291 163.342 12.2129 162.795 12.2129H156.654V24.2129H162.795ZM154.252 26.6153V9.81058H162.795C163.693 9.81058 164.502 9.9512 165.221 10.2325C165.947 10.5059 166.564 10.9004 167.072 11.416C167.588 11.9239 167.982 12.541 168.256 13.2676C168.537 13.9942 168.678 14.8028 168.678 15.6934V20.7325C168.678 21.6231 168.537 22.4317 168.256 23.1582C167.982 23.8848 167.588 24.5059 167.072 25.0215C166.564 25.5293 165.947 25.9239 165.221 26.2051C164.502 26.4785 163.693 26.6153 162.795 26.6153H154.252Z" fill="white"/>
<defs>
<linearGradient id="paint0_linear_402_1721" x1="13.4748" y1="34.1775" x2="37.9996" y2="-4.49998" gradientUnits="userSpaceOnUse">
<stop offset="0.0625" stop-color="#277EFF"/>
<stop offset="0.697917" stop-color="#12DCF6"/>
</linearGradient>
<radialGradient id="paint1_radial_402_1721" cx="0" cy="0" r="1" gradientUnits="userSpaceOnUse" gradientTransform="translate(6.99988 31.9999) rotate(29.2488) scale(28.6531)">
<stop offset="0.151571" stop-color="#F33ABF"/>
<stop offset="1" stop-color="#2C1783"/>
</radialGradient>
</defs>
</svg>
